name Walk8.mot
datacolumns 19
datarows 25
range 4.77700000 4.80100000
endheader

                time	   L_ground_force_vx	   L_ground_force_vy	   L_ground_force_vz	   L_ground_force_px	   L_ground_force_py	   L_ground_force_pz	   R_ground_force_vx	   R_ground_force_vy	   R_ground_force_vz	   R_ground_force_px	   R_ground_force_py	   R_ground_force_pz	   L_ground_torque_x	   L_ground_torque_y	   L_ground_torque_z	   R_ground_torque_x	   R_ground_torque_y	   R_ground_torque_z	
          4.77700000	          0.00000000	          0.00000000	          0.00000000	          0.00000000	          0.00000000	          0.00000000	         36.61209988	        256.11428062	          5.85360577	          0.17825400	          0.00000000	          0.14298265	          0.00000000	          0.00000000	          0.00000000	          0.00000000	         -9.71427502	          0.00000000	
          4.77800000	          0.00000000	          0.00000000	          0.00000000	          0.00000000	          0.00000000	          0.00000000	         34.83011926	        245.49591059	          5.83767789	          0.17844856	          0.00000000	          0.14265003	          0.00000000	          0.00000000	          0.00000000	          0.00000000	         -9.49933047	          0.00000000	
          4.77900000	          0.00000000	          0.00000000	          0.00000000	          0.00000000	          0.00000000	          0.00000000	         33.03011385	        235.06571352	          5.78359259	          0.17869989	          0.00000000	          0.14245539	          0.00000000	          0.00000000	          0.00000000	          0.00000000	         -9.26654635	          0.00000000	
          4.78000000	          0.00000000	          0.00000000	          0.00000000	          0.00000000	          0.00000000	          0.00000000	         31.21851200	        224.84077245	          5.69156230	          0.17903393	          0.00000000	          0.14238795	          0.00000000	          0.00000000	          0.00000000	          0.00000000	         -9.01934537	          0.00000000	
          4.78100000	          0.00000000	          0.00000000	          0.00000000	          0.00000000	          0.00000000	          0.00000000	         29.40347834	        214.79768424	          5.56679320	          0.17944787	          0.00000000	          0.14238657	          0.00000000	          0.00000000	          0.00000000	          0.00000000	         -8.76747382	          0.00000000	
          4.78200000	          0.00000000	          0.00000000	          0.00000000	          0.00000000	          0.00000000	          0.00000000	         27.59604652	        204.88444793	          5.41423269	          0.17986065	          0.00000000	          0.14234360	          0.00000000	          0.00000000	          0.00000000	          0.00000000	         -8.51489585	          0.00000000	
          4.78300000	          0.00000000	          0.00000000	          0.00000000	          0.00000000	          0.00000000	          0.00000000	         25.80611958	        195.05944811	          5.23637139	          0.18017859	          0.00000000	          0.14215302	          0.00000000	          0.00000000	          0.00000000	          0.00000000	         -8.25561374	          0.00000000	
          4.78400000	          0.00000000	          0.00000000	          0.00000000	          0.00000000	          0.00000000	          0.00000000	         24.03357292	        185.31533636	          5.03570612	          0.18038809	          0.00000000	          0.14175345	          0.00000000	          0.00000000	          0.00000000	          0.00000000	         -7.98196605	          0.00000000	
          4.78500000	          0.00000000	          0.00000000	          0.00000000	          0.00000000	          0.00000000	          0.00000000	         22.26629527	        175.68084278	          4.81389459	          0.18057877	          0.00000000	          0.14113974	          0.00000000	          0.00000000	          0.00000000	          0.00000000	         -7.69284633	          0.00000000	
          4.78600000	          0.00000000	          0.00000000	          0.00000000	          0.00000000	          0.00000000	          0.00000000	         20.48719059	        166.20514070	          4.56723619	          0.18086281	          0.00000000	          0.14036527	          0.00000000	          0.00000000	          0.00000000	          0.00000000	         -7.39205232	          0.00000000	
          4.78700000	          0.00000000	          0.00000000	          0.00000000	          0.00000000	          0.00000000	          0.00000000	         18.68480366	        156.92979150	          4.28955397	          0.18127682	          0.00000000	          0.13953781	          0.00000000	          0.00000000	          0.00000000	          0.00000000	         -7.08479898	          0.00000000	
          4.78800000	          0.00000000	          0.00000000	          0.00000000	          0.00000000	          0.00000000	          0.00000000	         16.86096372	        147.89348695	          3.97876307	          0.18181825	          0.00000000	          0.13880277	          0.00000000	          0.00000000	          0.00000000	          0.00000000	         -6.77701295	          0.00000000	
          4.78900000	          0.00000000	          0.00000000	          0.00000000	          0.00000000	          0.00000000	          0.00000000	         15.03039366	        139.16271200	          3.63986580	          0.18257478	          0.00000000	          0.13827976	          0.00000000	          0.00000000	          0.00000000	          0.00000000	         -6.47280040	          0.00000000	
          4.79000000	          0.00000000	          0.00000000	          0.00000000	          0.00000000	          0.00000000	          0.00000000	         13.21153952	        130.81954077	          3.28676230	          0.18370258	          0.00000000	          0.13796770	          0.00000000	          0.00000000	          0.00000000	          0.00000000	         -6.17378712	          0.00000000	
          4.79100000	          0.00000000	          0.00000000	          0.00000000	          0.00000000	          0.00000000	          0.00000000	         11.41505924	        122.91160292	          2.93315094	          0.18522168	          0.00000000	          0.13773142	          0.00000000	          0.00000000	          0.00000000	          0.00000000	         -5.88039593	          0.00000000	
          4.79200000	          0.00000000	          0.00000000	          0.00000000	          0.00000000	          0.00000000	          0.00000000	          9.64235824	        115.43520424	          2.58229554	          0.18693184	          0.00000000	          0.13740924	          0.00000000	          0.00000000	          0.00000000	          0.00000000	         -5.59091000	          0.00000000	
          4.79300000	          0.00000000	          0.00000000	          0.00000000	          0.00000000	          0.00000000	          0.00000000	          7.89470627	        108.36299038	          2.23791245	          0.18856366	          0.00000000	          0.13692025	          0.00000000	          0.00000000	          0.00000000	          0.00000000	         -5.30131676	          0.00000000	
          4.79400000	          0.00000000	          0.00000000	          0.00000000	          0.00000000	          0.00000000	          0.00000000	          6.17771549	        101.67079265	          1.91544578	          0.18993587	          0.00000000	          0.13627625	          0.00000000	          0.00000000	          0.00000000	          0.00000000	         -5.00741400	          0.00000000	
          4.79500000	          0.00000000	          0.00000000	          0.00000000	          0.00000000	          0.00000000	          0.00000000	          4.49644731	         95.35826986	          1.63242799	          0.19102655	          0.00000000	          0.13555525	          0.00000000	          0.00000000	          0.00000000	          0.00000000	         -4.70857546	          0.00000000	
          4.79600000	          0.00000000	          0.00000000	          0.00000000	          0.00000000	          0.00000000	          0.00000000	          2.85247317	         89.45620173	          1.39616217	          0.19197536	          0.00000000	          0.13485112	          0.00000000	          0.00000000	          0.00000000	          0.00000000	         -4.41138818	          0.00000000	
          4.79700000	          0.00000000	          0.00000000	          0.00000000	          0.00000000	          0.00000000	          0.00000000	          1.24819714	         83.98934956	          1.20363092	          0.19298352	          0.00000000	          0.13416656	          0.00000000	          0.00000000	          0.00000000	          0.00000000	         -4.12670654	          0.00000000	
          4.79800000	          0.00000000	          0.00000000	          0.00000000	          0.00000000	          0.00000000	          0.00000000	         -0.30815929	         78.94937639	          1.04503917	          0.19420799	          0.00000000	          0.13340819	          0.00000000	          0.00000000	          0.00000000	          0.00000000	         -3.85965191	          0.00000000	
          4.79900000	          0.00000000	          0.00000000	          0.00000000	          0.00000000	          0.00000000	          0.00000000	         -1.80051639	         74.31854973	          0.90481189	          0.19564670	          0.00000000	          0.13256217	          0.00000000	          0.00000000	          0.00000000	          0.00000000	         -3.60572580	          0.00000000	
          4.80000000	          0.00000000	          0.00000000	          0.00000000	          0.00000000	          0.00000000	          0.00000000	         -3.20609793	         70.08086127	          0.76762799	          0.19704821	          0.00000000	          0.13178237	          0.00000000	          0.00000000	          0.00000000	          0.00000000	         -3.35914066	          0.00000000	
          4.80100000	          0.00000000	          0.00000000	          0.00000000	          0.00000000	          0.00000000	          0.00000000	         -4.50481423	         66.21050973	          0.63307618	          0.19808879	          0.00000000	          0.13127176	          0.00000000	          0.00000000	          0.00000000	          0.00000000	         -3.12052686	          0.00000000	
